<svg width="1219" height="909" viewBox="0 0 1219 909" opacity="0.4" fill="none" xmlns="http://www.w3.org/2000/svg">
<path d="M11 6.5V13H17.5H24V6.5V-1.93715e-07H17.5H11V6.5Z" fill="#EC2C45"/>
<path d="M8 55.5V72H24.5H41V55.5V39H24.5H8V55.5Z" fill="#EC2C45"/>
<path d="M76 80.5V87H83H90V80.5V74H83H76V80.5Z" fill="#EC2C45"/>
<path d="M0 130.5V164H22H44V130.5V97H22H0V130.5Z" fill="#EC2C45"/>
<path d="M128 105.5V112H134.5H141V105.5V99H134.5H128V105.5Z" fill="#EC2C45"/>
<path d="M88 136.5V153L104.3 152.8L120.5 152.5L120.8 136.2L121 120H104.5H88V136.5Z" fill="#EC2C45"/>
<path d="M176 140.5V147H182.5H189V140.5V134H182.5H176V140.5Z" fill="#EC2C45"/>
<path d="M57 169.5V176H63.5H70V169.5V163H63.5H57V169.5Z" fill="#EC2C45"/>
<path d="M108.2 214.2L108.5 247.5L141.8 247.8L175 248V214.5V181H141.5H108L108.2 214.2Z" fill="#EC2C45"/>
<path d="M213 205.5V222H229.5H246V205.5V189H229.5H213V205.5Z" fill="#EC2C45"/>
<path d="M0 254V313H42H84V254V195H42H0V254Z" fill="#EC2C45"/>
<path d="M276 211.5V218H282.5H289V211.5V205H282.5H276V211.5Z" fill="#EC2C45"/>
<path d="M261 260.5V277H277.5H294V260.5V244H277.5H261V260.5Z" fill="#EC2C45"/>
<path d="M336 256V263H343H350.1L349.8 256.2L349.5 249.5L342.8 249.2L336 248.9V256Z" fill="#EC2C45"/>
<path d="M113 295.5V312H129.5H146V295.5V279H129.5H113V295.5Z" fill="#EC2C45"/>
<path d="M178.2 316.2L178.5 349.5L211.8 349.8L245 350V316.5V283H211.5H178L178.2 316.2Z" fill="#EC2C45"/>
<path d="M398 317.5V324H404.5H411V317.5V311H404.5H398V317.5Z" fill="#EC2C45"/>
<path d="M293 330.5V347H309.5H326V330.5V314H309.5H293V330.5Z" fill="#EC2C45"/>
<path d="M351.2 321.7L351.5 328.5L358.3 328.8L365 329.1V322V315H358H350.9L351.2 321.7Z" fill="#EC2C45"/>
<path d="M111 338.5V345H118H125V338.5V332H118H111V338.5Z" fill="#EC2C45"/>
<path d="M0 431.5V521H38H76V431.5V342H38H0V431.5Z" fill="#EC2C45"/>
<path d="M425 352.5V359H432H439V352.5V346H432H425V352.5Z" fill="#EC2C45"/>
<path d="M363 373.5V390H379.5H396V373.5V357H379.5H363V373.5Z" fill="#EC2C45"/>
<path d="M481 363.5V370H488H495V363.5V357H488H481V363.5Z" fill="#EC2C45"/>
<path d="M262 404V436H294H326V404V372H294H262V404Z" fill="#EC2C45"/>
<path d="M525 390.5V407H541.5H558V390.5V374H541.5H525V390.5Z" fill="#EC2C45"/>
<path d="M103 438V498H162.5H222V438V378H162.5H103V438Z" fill="#EC2C45"/>
<path d="M428 393V400H435H442V393V386H435H428V393Z" fill="#EC2C45"/>
<path d="M231.2 416.7L231.5 423.5L238.3 423.8L245 424.1V417V410H238H230.9L231.2 416.7Z" fill="#EC2C45"/>
<path d="M455 436.5V453H471.5H488V436.5V420H471.5H455V436.5Z" fill="#EC2C45"/>
<path d="M363 453V485H394.5H426V453V421H394.5H363V453Z" fill="#EC2C45"/>
<path d="M592 433.5V440H598.5H605V433.5V427H598.5H592V433.5Z" fill="#EC2C45"/>
<path d="M508 468.5V500H540H572V468.5V437H540H508V468.5Z" fill="#EC2C45"/>
<path d="M335 446V453H341.5H348V446V439H341.5H335V446Z" fill="#EC2C45"/>
<path d="M606 476.5V493H622.5H639V476.5V460H622.5H606V476.5Z" fill="#EC2C45"/>
<path d="M255 482.5V499H271.5H288V482.5V466H271.5H255V482.5Z" fill="#EC2C45"/>
<path d="M650.2 483.7L650.5 490.5L657.3 490.8L664 491.1V484V477H657H649.9L650.2 483.7Z" fill="#EC2C45"/>
<path d="M684 510.5V527H700.5H717V510.5V494H700.5H684V510.5Z" fill="#EC2C45"/>
<path d="M737 509V516H743.5H750V509V502H743.5H737V509Z" fill="#EC2C45"/>
<path d="M776 524.5V541H792.5H809V524.5V508H792.5H776V524.5Z" fill="#EC2C45"/>
<path d="M413 572.5V632H472H531V572.5V513H472H413V572.5Z" fill="#EC2C45"/>
<path d="M234 574V633H293H352V574V515H293H234V574Z" fill="#EC2C45"/>
<path d="M101 523V530H108H115V523V516H108H101V523Z" fill="#EC2C45"/>
<path d="M192 527V534H199H206.1L205.8 527.2L205.5 520.5L198.8 520.2L192 519.9V527Z" fill="#EC2C45"/>
<path d="M587 558V591H620.5H654V558V525H620.5H587V558Z" fill="#EC2C45"/>
<path d="M543 550.5V567H559.5H576V550.5V534H559.5H543V550.5Z" fill="#EC2C45"/>
<path d="M0 637V727H59H118V637V547H59H0V637Z" fill="#EC2C45"/>
<path d="M367 553.5V560H373.5H380V553.5V547H373.5H367V553.5Z" fill="#EC2C45"/>
<path d="M713 581.5V615H746.5H780V581.5V548H746.5H713V581.5Z" fill="#EC2C45"/>
<path d="M674 556.5V563H680.5H687V556.5V550H680.5H674V556.5Z" fill="#EC2C45"/>
<path d="M850 558V565H856.5H863V558V551H856.5H850V558Z" fill="#EC2C45"/>
<path d="M156 581.5V598H172.5H189V581.5V565H172.5H156V581.5Z" fill="#EC2C45"/>
<path d="M823.7 587.7C823.3 588 823 595.5 823 604.2V620H839.5H856V603.5V587H840.2C831.5 587 824 587.3 823.7 587.7Z" fill="#EC2C45"/>
<path d="M586 626.5V643H602.5H619V626.5V610H602.5H586V626.5Z" fill="#EC2C45"/>
<path d="M790 616.5V623H796.5H803V616.5V610H796.5H790V616.5Z" fill="#EC2C45"/>
<path d="M889 618V625H895.5H902V618V611H895.5H889V618Z" fill="#EC2C45"/>
<path d="M367 622V629H373.5H380V622V615H373.5H367V622Z" fill="#EC2C45"/>
<path d="M146 623.5V630H153H160V623.5V617H153H146V623.5Z" fill="#EC2C45"/>
<path d="M550 629V636H556.5H563V629V622H556.5H550V629Z" fill="#EC2C45"/>
<path d="M635 695V754H694H753V695V636H694H635V695Z" fill="#EC2C45"/>
<path d="M957.7 640.7C957.3 641 957 644.2 957 647.7V654H964H971V647V640H964.7C961.2 640 958 640.3 957.7 640.7Z" fill="#EC2C45"/>
<path d="M768 679V711H799.5H831V679V647H799.5H768V679Z" fill="#EC2C45"/>
<path d="M890.7 647.7C890.3 648 890 655.5 890 664.2V680H906.5H923V663.5V647H907.2C898.5 647 891 647.3 890.7 647.7Z" fill="#EC2C45"/>
<path d="M146 738.5V828H236H326V738.5V649H236H146V738.5Z" fill="#EC2C45"/>
<path d="M393 747V837H483H573V747V657H483H393V747Z" fill="#EC2C45"/>
<path d="M846 665.5V672H852.5H859V665.5V659H852.5H846V665.5Z" fill="#EC2C45"/>
<path d="M980 686.5V703H996.5H1013V686.5V670H996.5H980V686.5Z" fill="#EC2C45"/>
<path d="M335 690.5V697H341.5H348V690.5V684H341.5H335V690.5Z" fill="#EC2C45"/>
<path d="M1044 692V699H1050.5H1057V692V685H1050.5H1044V692Z" fill="#EC2C45"/>
<path d="M599 707.5V714H605.5H612V707.5V701H605.5H599V707.5Z" fill="#EC2C45"/>
<path d="M865 710V717H872H879V710V703H872H865V710Z" fill="#EC2C45"/>
<path d="M847 783V842H906H965V783V724H906H847V783Z" fill="#EC2C45"/>
<path d="M1043 740.5V757H1059.5H1076V740.5V724H1059.5H1043V740.5Z" fill="#EC2C45"/>
<path d="M779 733.5V740H785.5H792V733.5V727H785.5H779V733.5Z" fill="#EC2C45"/>
<path d="M998 740.5V747H1004.5H1011V740.5V734H1004.5H998V740.5Z" fill="#EC2C45"/>
<path d="M342 753.5V770H358.5H375V753.5V737H358.5H342V753.5Z" fill="#EC2C45"/>
<path d="M107 747.5V754H114H121V747.5V741H114H107V747.5Z" fill="#EC2C45"/>
<path d="M590 761.5V778H606.5H623V761.5V745H606.5H590V761.5Z" fill="#EC2C45"/>
<path d="M762 777.5V794H778.5H795V777.5V761H778.5H762V777.5Z" fill="#EC2C45"/>
<path d="M0 837.5V909H45H90V837.5V766H45H0V837.5Z" fill="#EC2C45"/>
<path d="M992 799.5V831H1024H1056V799.5V768H1024H992V799.5Z" fill="#EC2C45"/>
<path d="M1097 778.5V785H1104H1111V778.5V772H1104H1097V778.5Z" fill="#EC2C45"/>
<path d="M812 780V787H819H826V780V773H819H812V780Z" fill="#EC2C45"/>
<path d="M685 781.5V788H692H699V781.5V775H692H685V781.5Z" fill="#EC2C45"/>
<path d="M99 803.5V820H115.5H132V803.5V787H115.5H99V803.5Z" fill="#EC2C45"/>
<path d="M336 807.5V814H343H350V807.5V801H343H336V807.5Z" fill="#EC2C45"/>
<path d="M614 856.5V909H704H794V856.5V804H704H614V856.5Z" fill="#EC2C45"/>
<path d="M1076 820.5V837H1092.5H1109V820.5V804H1092.5H1076V820.5Z" fill="#EC2C45"/>
<path d="M1140 838.5V845H1147H1154V838.5V832H1147H1140V838.5Z" fill="#EC2C45"/>
<path d="M579 841.5V848H585.5H592V841.5V835H585.5H579V841.5Z" fill="#EC2C45"/>
<path d="M801 853.5V870H817.5H834V853.5V837H817.5H801V853.5Z" fill="#EC2C45"/>
<path d="M117 845.5V852H123.5H130V845.5V839H123.5H117V845.5Z" fill="#EC2C45"/>
<path d="M287 855.5V872H303.5H320V855.5V839H303.5H287V855.5Z" fill="#EC2C45"/>
<path d="M173 854V861H179.5H186V854V847H179.5H173V854Z" fill="#EC2C45"/>
<path d="M410 856.5V863H417H424V856.5V850H417H410V856.5Z" fill="#EC2C45"/>
<path d="M509 858V865H516H523V858V851H516H509V858Z" fill="#EC2C45"/>
<path d="M1179 862.5V869H1186H1193V862.5V856H1186H1179V862.5Z" fill="#EC2C45"/>
<path d="M1033 866.5V873H1039.5H1046V866.5V860H1039.5H1033V866.5Z" fill="#EC2C45"/>
<path d="M837 885.5V909H927H1017V885.5V862H927H837V885.5Z" fill="#EC2C45"/>
<path d="M1061 885.5V909H1092.5H1124V885.5V862H1092.5H1061V885.5Z" fill="#EC2C45"/>
<path d="M346 890V909H435.5H525V890V871H435.5H346V890Z" fill="#EC2C45"/>
<path d="M115 892V909H205H295V892V875H205H115V892Z" fill="#EC2C45"/>
<path d="M553 884.5V891H559.5H566V884.5V878H559.5H553V884.5Z" fill="#EC2C45"/>
<path d="M1206 887.5V894H1212.5H1219V887.5V881H1212.5H1206V887.5Z" fill="#EC2C45"/>
<path d="M1150 895.5V909H1166.5H1183V895.5V882H1166.5H1150V895.5Z" fill="#EC2C45"/>
</svg>
