<svg width="1219" height="909" viewBox="0 0 1219 909" fill="none" xmlns="http://www.w3.org/2000/svg">
<path d="M1208 902.5V896H1201.5H1195V902.5V909H1201.5H1208V902.5Z" fill="#EC2C45"/>
<path d="M1211 853.5V837H1194.5H1178V853.5V870H1194.5H1211V853.5Z" fill="#EC2C45"/>
<path d="M1143 828.5V822H1136H1129V828.5V835H1136H1143V828.5Z" fill="#EC2C45"/>
<path d="M1219 778.5V745H1197H1175V778.5V812H1197H1219V778.5Z" fill="#EC2C45"/>
<path d="M1091 803.5V797H1084.5H1078V803.5V810H1084.5H1091V803.5Z" fill="#EC2C45"/>
<path d="M1131 772.5V756L1114.7 756.2L1098.5 756.5L1098.2 772.8L1098 789H1114.5H1131V772.5Z" fill="#EC2C45"/>
<path d="M1043 768.5V762H1036.5H1030V768.5V775H1036.5H1043V768.5Z" fill="#EC2C45"/>
<path d="M1162 739.5V733H1155.5H1149V739.5V746H1155.5H1162V739.5Z" fill="#EC2C45"/>
<path d="M1110.8 694.8L1110.5 661.5L1077.2 661.2L1044 661V694.5V728H1077.5H1111L1110.8 694.8Z" fill="#EC2C45"/>
<path d="M1006 703.5V687H989.5H973V703.5V720H989.5H1006V703.5Z" fill="#EC2C45"/>
<path d="M1219 655V596H1177H1135V655V714H1177H1219V655Z" fill="#EC2C45"/>
<path d="M943 697.5V691H936.5H930V697.5V704H936.5H943V697.5Z" fill="#EC2C45"/>
<path d="M958 648.5V632H941.5H925V648.5V665H941.5H958V648.5Z" fill="#EC2C45"/>
<path d="M883 653V646H876H868.9L869.2 652.8L869.5 659.5L876.2 659.8L883 660.1V653Z" fill="#EC2C45"/>
<path d="M1106 613.5V597H1089.5H1073V613.5V630H1089.5H1106V613.5Z" fill="#EC2C45"/>
<path d="M1040.8 592.8L1040.5 559.5L1007.2 559.2L974 559V592.5V626H1007.5H1041L1040.8 592.8Z" fill="#EC2C45"/>
<path d="M821 591.5V585H814.5H808V591.5V598H814.5H821V591.5Z" fill="#EC2C45"/>
<path d="M926 578.5V562H909.5H893V578.5V595H909.5H926V578.5Z" fill="#EC2C45"/>
<path d="M867.8 587.3L867.5 580.5L860.7 580.2L854 579.9V587V594H861H868.1L867.8 587.3Z" fill="#EC2C45"/>
<path d="M1108 570.5V564H1101H1094V570.5V577H1101H1108V570.5Z" fill="#EC2C45"/>
<path d="M1219 477.5V388H1181H1143V477.5V567H1181H1219V477.5Z" fill="#EC2C45"/>
<path d="M794 556.5V550H787H780V556.5V563H787H794V556.5Z" fill="#EC2C45"/>
<path d="M856 535.5V519H839.5H823V535.5V552H839.5H856V535.5Z" fill="#EC2C45"/>
<path d="M738 545.5V539H731H724V545.5V552H731H738V545.5Z" fill="#EC2C45"/>
<path d="M957 505V473H925H893V505V537H925H957V505Z" fill="#EC2C45"/>
<path d="M694 518.5V502H677.5H661V518.5V535H677.5H694V518.5Z" fill="#EC2C45"/>
<path d="M1116 471V411H1056.5H997V471V531H1056.5H1116V471Z" fill="#EC2C45"/>
<path d="M791 516V509H784H777V516V523H784H791V516Z" fill="#EC2C45"/>
<path d="M987.8 492.3L987.5 485.5L980.7 485.2L974 484.9V492V499H981H988.1L987.8 492.3Z" fill="#EC2C45"/>
<path d="M764 472.5V456H747.5H731V472.5V489H747.5H764V472.5Z" fill="#EC2C45"/>
<path d="M856 456V424H824.5H793V456V488H824.5H856V456Z" fill="#EC2C45"/>
<path d="M627 475.5V469H620.5H614V475.5V482H620.5H627V475.5Z" fill="#EC2C45"/>
<path d="M711 440.5V409H679H647V440.5V472H679H711V440.5Z" fill="#EC2C45"/>
<path d="M884 463V456H877.5H871V463V470H877.5H884V463Z" fill="#EC2C45"/>
<path d="M613 432.5V416H596.5H580V432.5V449H596.5H613V432.5Z" fill="#EC2C45"/>
<path d="M964 426.5V410H947.5H931V426.5V443H947.5H964V426.5Z" fill="#EC2C45"/>
<path d="M568.8 425.3L568.5 418.5L561.7 418.2L555 417.9V425V432H562H569.1L568.8 425.3Z" fill="#EC2C45"/>
<path d="M535 398.5V382H518.5H502V398.5V415H518.5H535V398.5Z" fill="#EC2C45"/>
<path d="M482 400V393H475.5H469V400V407H475.5H482V400Z" fill="#EC2C45"/>
<path d="M443 384.5V368H426.5H410V384.5V401H426.5H443V384.5Z" fill="#EC2C45"/>
<path d="M806 336.5V277H747H688V336.5V396H747H806V336.5Z" fill="#EC2C45"/>
<path d="M985 335V276H926H867V335V394H926H985V335Z" fill="#EC2C45"/>
<path d="M1118 386V379H1111H1104V386V393H1111H1118V386Z" fill="#EC2C45"/>
<path d="M1027 382V375H1020H1012.9L1013.2 381.8L1013.5 388.5L1020.2 388.8L1027 389.1V382Z" fill="#EC2C45"/>
<path d="M632 351V318H598.5H565V351V384H598.5H632V351Z" fill="#EC2C45"/>
<path d="M676 358.5V342H659.5H643V358.5V375H659.5H676V358.5Z" fill="#EC2C45"/>
<path d="M1219 272V182H1160L1101 182V272V362H1160H1219V272Z" fill="#EC2C45"/>
<path d="M852 355.5V349H845.5H839V355.5V362H845.5H852V355.5Z" fill="#EC2C45"/>
<path d="M506 327.5V294H472.5H439V327.5V361H472.5H506V327.5Z" fill="#EC2C45"/>
<path d="M545 352.5V346H538.5H532V352.5V359H538.5H545V352.5Z" fill="#EC2C45"/>
<path d="M369 351V344H362.5H356V351V358H362.5H369V351Z" fill="#EC2C45"/>
<path d="M1063 327.5V311H1046.5H1030V327.5V344H1046.5H1063V327.5Z" fill="#EC2C45"/>
<path d="M395.3 321.3C395.7 321 396 313.5 396 304.8V289H379.5H363V305.5V322H378.8C387.5 322 395 321.7 395.3 321.3Z" fill="#EC2C45"/>
<path d="M633 282.5V266H616.5H600V282.5V299H616.5H633V282.5Z" fill="#EC2C45"/>
<path d="M429 292.5V286H422.5H416V292.5V299H422.5H429V292.5Z" fill="#EC2C45"/>
<path d="M330 291V284H323.5H317V291V298H323.5H330V291Z" fill="#EC2C45"/>
<path d="M852 287V280H845.5H839V287V294H845.5H852V287Z" fill="#EC2C45"/>
<path d="M1073 285.5V279H1066H1059V285.5V292H1066H1073V285.5Z" fill="#EC2C45"/>
<path d="M669 280V273H662.5H656V280V287H662.5H669V280Z" fill="#EC2C45"/>
<path d="M584 214V155H525L466 155V214V273H525H584V214Z" fill="#EC2C45"/>
<path d="M261.3 268.3C261.7 268 262 264.8 262 261.3V255H255H248V262V269H254.3C257.8 269 261 268.7 261.3 268.3Z" fill="#EC2C45"/>
<path d="M451 230V198H419.5H388V230V262H419.5H451V230Z" fill="#EC2C45"/>
<path d="M328.3 261.3C328.7 261 329 253.5 329 244.8V229H312.5H296V245.5V262H311.8C320.5 262 328 261.7 328.3 261.3Z" fill="#EC2C45"/>
<path d="M1073 170.5V81L983 81L893 81V170.5V260H983H1073V170.5Z" fill="#EC2C45"/>
<path d="M826 162V72L736 72L646 72V162V252L736 252H826V162Z" fill="#EC2C45"/>
<path d="M373 243.5V237H366.5H360V243.5V250H366.5H373V243.5Z" fill="#EC2C45"/>
<path d="M239 222.5V206H222.5H206V222.5V239H222.5H239V222.5Z" fill="#EC2C45"/>
<path d="M884 218.5V212H877.5H871V218.5V225H877.5H884V218.5Z" fill="#EC2C45"/>
<path d="M175 217V210H168.5H162V217V224H168.5H175V217Z" fill="#EC2C45"/>
<path d="M620 201.5V195H613.5H607V201.5V208H613.5H620V201.5Z" fill="#EC2C45"/>
<path d="M354 199V192H347H340V199V206H347H354V199Z" fill="#EC2C45"/>
<path d="M372 126V67L313 67H254V126V185H313H372V126Z" fill="#EC2C45"/>
<path d="M176 168.5V152H159.5H143V168.5V185H159.5H176V168.5Z" fill="#EC2C45"/>
<path d="M440 175.5V169H433.5H427V175.5V182H433.5H440V175.5Z" fill="#EC2C45"/>
<path d="M221 168.5V162H214.5H208V168.5V175H214.5H221V168.5Z" fill="#EC2C45"/>
<path d="M877 155.5V139H860.5H844V155.5V172H860.5H877V155.5Z" fill="#EC2C45"/>
<path d="M1112 161.5V155H1105H1098V161.5V168H1105H1112V161.5Z" fill="#EC2C45"/>
<path d="M629 147.5V131H612.5H596V147.5V164H612.5H629V147.5Z" fill="#EC2C45"/>
<path d="M457 131.5V115H440.5H424V131.5V148H440.5H457V131.5Z" fill="#EC2C45"/>
<path d="M1219 71.5V0L1174 0L1129 0V71.5V143H1174H1219V71.5Z" fill="#EC2C45"/>
<path d="M227 109.5V78H195L163 78V109.5V141H195H227V109.5Z" fill="#EC2C45"/>
<path d="M122 130.5V124H115H108V130.5V137H115H122V130.5Z" fill="#EC2C45"/>
<path d="M407 129V122H400H393V129V136H400H407V129Z" fill="#EC2C45"/>
<path d="M534 127.5V121H527H520V127.5V134H527H534V127.5Z" fill="#EC2C45"/>
<path d="M1120 105.5V89H1103.5H1087V105.5V122H1103.5H1120V105.5Z" fill="#EC2C45"/>
<path d="M883 101.5V95H876H869V101.5V108H876H883V101.5Z" fill="#EC2C45"/>
<path d="M605 52.5V0L515 0L425 0V52.5V105L515 105L605 105V52.5Z" fill="#EC2C45"/>
<path d="M143 88.5V72H126.5H110V88.5V105H126.5H143V88.5Z" fill="#EC2C45"/>
<path d="M79 70.5V64H72H65V70.5V77H72H79V70.5Z" fill="#EC2C45"/>
<path d="M640 67.5V61H633.5H627V67.5V74H633.5H640V67.5Z" fill="#EC2C45"/>
<path d="M418 55.5V39H401.5L385 39V55.5V72H401.5H418V55.5Z" fill="#EC2C45"/>
<path d="M1102 63.5V57H1095.5H1089V63.5V70H1095.5H1102V63.5Z" fill="#EC2C45"/>
<path d="M932 53.5V37H915.5L899 37V53.5V70H915.5H932V53.5Z" fill="#EC2C45"/>
<path d="M1046 55V48H1039.5H1033V55V62H1039.5H1046V55Z" fill="#EC2C45"/>
<path d="M809 52.5V46H802H795V52.5V59H802H809V52.5Z" fill="#EC2C45"/>
<path d="M710 51V44H703H696V51V58H703H710V51Z" fill="#EC2C45"/>
<path d="M40 46.5V40H33H26V46.5V53H33H40V46.5Z" fill="#EC2C45"/>
<path d="M186 42.5V36H179.5H173V42.5V49H179.5H186V42.5Z" fill="#EC2C45"/>
<path d="M382 23.5V0L292 0L202 0V23.5V47L292 47L382 47V23.5Z" fill="#EC2C45"/>
<path d="M158 23.5V0L126.5 0L95 0V23.5V47H126.5L158 47V23.5Z" fill="#EC2C45"/>
<path d="M873 19V0L783.5 0L694 0V19V38L783.5 38L873 38V19Z" fill="#EC2C45"/>
<path d="M1104 17V0L1014 0L924 0V17V34L1014 34L1104 34V17Z" fill="#EC2C45"/>
<path d="M666 24.5V18H659.5H653V24.5V31H659.5H666V24.5Z" fill="#EC2C45"/>
<path d="M13 21.5V15H6.5L-1.93715e-07 15V21.5L-1.93715e-07 28H6.5H13L13 21.5Z" fill="#EC2C45"/>
<path d="M69 13.5V0L52.5 0L36 0V13.5V27H52.5L69 27V13.5Z" fill="#EC2C45"/>
</svg>
