<svg width="100%" viewBox="0 0 257 261" fill="none" xmlns="http://www.w3.org/2000/svg">
<circle cx="129" cy="130" r="125" fill="#192028"/>
<circle cx="129" cy="130" r="100" fill="#F6F6F6"/>
<path d="M141.167 110.917V88H116.167V110.917L128.667 123.417L141.167 110.917ZM109.917 117.167H87V142.167H109.917L122.417 129.667L109.917 117.167ZM116.167 148.417V171.333H141.167V148.417L128.667 135.917L116.167 148.417ZM147.417 117.167L134.917 129.667L147.417 142.167H170.333V117.167H147.417Z" fill="#192028"/>
<path d="M139.164 108.916V86H114.165V108.916L126.665 121.415L139.164 108.916ZM107.916 115.165H85V140.164H107.916L120.415 127.665L107.916 115.165ZM114.165 146.414V169.33H139.164V146.414L126.665 133.915L114.165 146.414ZM145.414 115.165L132.915 127.665L145.414 140.164H168.33V115.165H145.414Z" fill="#EC2C45"/>
<path d="M168.615 161.842L183.237 187.158L177.463 190.49L162.842 165.173L168.615 161.842ZM169.12 158C168.79 158 168.455 158.083 168.148 158.262L159.973 162.98C159.348 163.34 159 163.995 159 164.667C159 164.997 159.083 165.332 159.26 165.638L175.268 193.358C175.628 193.983 176.283 194.332 176.957 194.332C177.287 194.332 177.622 194.248 177.928 194.07L186.103 189.352C187.035 188.815 187.353 187.625 186.817 186.693L170.807 158.973C170.447 158.348 169.793 158 169.12 158V158ZM179.935 186.572C179.78 187.152 179.185 187.493 178.607 187.338C178.028 187.183 177.685 186.588 177.84 186.01C177.995 185.432 178.59 185.088 179.168 185.243C179.747 185.398 180.09 185.993 179.935 186.572ZM178.227 183.615C178.072 184.193 177.477 184.537 176.898 184.382C176.318 184.227 175.977 183.632 176.132 183.053C176.287 182.475 176.882 182.132 177.46 182.287C178.038 182.442 178.382 183.037 178.227 183.615ZM173.725 177.353C172.93 177.812 171.913 177.54 171.453 176.745C170.993 175.95 171.267 174.935 172.062 174.475C172.857 174.015 173.875 174.288 174.333 175.083C174.792 175.878 174.52 176.895 173.725 177.353ZM170.445 166.838L169.05 167.643L169.855 169.037L168.455 169.847L167.648 168.452L166.255 169.257L165.445 167.857L166.84 167.052L166.035 165.657L167.437 164.848L168.242 166.242L169.637 165.437L170.445 166.838ZM198.78 182.86C198.058 179.245 195.668 177.962 193.84 177.962C190.92 177.962 188.69 180.893 190.367 184.762C192.125 188.815 192.388 192.273 191.092 194.25C189.77 196.263 187.132 196.263 185.202 194.75C184.782 194.403 184.383 193.977 184.013 193.473L182.143 194.555C182.63 195.273 183.207 195.9 183.862 196.418C185.207 197.513 186.688 198 188.183 198C190.917 198 193.693 196.372 195.75 193.865C197.853 191.3 199 188.155 199 185.117C199 184.353 198.928 183.597 198.78 182.86ZM193.908 192.728C194.325 190.315 193.795 187.287 192.33 183.908C191.278 181.483 192.443 180.1 193.84 180.1C195.467 180.1 196.375 181.742 196.68 183.278C197.338 186.578 196.147 190.13 193.908 192.728Z" fill="#192028"/>
<path d="M88.2733 81.6686C87.3291 80.6644 87.3778 79.0789 88.382 78.1347C89.3861 77.1905 90.9716 77.2392 91.9158 78.2434C92.86 79.2475 92.8113 80.833 91.8071 81.7772C90.803 82.7214 89.2175 82.6727 88.2733 81.6686ZM61.7494 92.3888C59.9375 90.4619 59.4711 88.6035 60.2434 86.532C60.336 86.2826 60.483 86.0666 60.6687 85.8919C60.9626 85.6156 61.3533 85.4472 61.7758 85.4343L68.6847 85.2176C69.9263 85.1803 71.0986 85.2447 72.7499 83.6919L81.5321 75.4338C83.1834 73.8811 83.1924 72.7058 83.3047 71.4701L83.9468 64.5864C83.9832 64.1677 84.1765 63.787 84.4716 63.5095C84.6561 63.336 84.8832 63.2003 85.1366 63.1244C87.2516 62.4808 89.0779 63.0605 90.8886 64.9862C93.2429 67.4898 95.9762 72.6958 98.8874 80.0153C100.268 83.483 99.3698 86.1047 97.6663 87.7066C96.8698 88.4556 95.8962 88.9821 94.8958 89.2685C90.5266 90.5196 87.2222 93.6863 85.736 97.8817C85.3911 98.8603 84.8057 99.7997 84.0092 100.549C82.3057 102.151 79.6325 102.887 76.2562 101.296C69.1317 97.9405 64.1036 94.8924 61.7494 92.3888ZM87.0591 82.8103C88.6358 84.4871 91.2721 84.5681 92.9489 82.9914C94.6257 81.4147 94.7067 78.7784 93.13 77.1017C91.5533 75.4249 88.917 75.3438 87.2402 76.9205C85.5635 78.4972 85.4824 81.1335 87.0591 82.8103ZM85.0567 90.4126C85.6869 91.0829 86.7411 91.1165 87.4126 90.4851C88.084 89.8537 88.1153 88.7994 87.485 88.1292C86.8548 87.459 85.8006 87.4254 85.1291 88.0567C84.4577 88.6881 84.4264 89.7424 85.0567 90.4126ZM77.9527 91.3732C78.4265 91.8771 79.217 91.9002 79.7197 91.4276C80.2223 90.9549 80.2478 90.1645 79.774 89.6606C79.3002 89.1567 78.5097 89.1336 78.0071 89.6063C77.5044 90.079 77.4789 90.8693 77.9527 91.3732ZM73.8299 91.2464C74.3037 91.7503 75.0941 91.7734 75.5968 91.3008C76.0995 90.8281 76.125 90.0377 75.6512 89.5338C75.1773 89.0299 74.3869 89.0068 73.8842 89.4795C73.3816 89.9522 73.3561 90.7425 73.8299 91.2464ZM77.8613 95.5337C78.3351 96.0376 79.1256 96.0607 79.6282 95.588C80.1309 95.1154 80.1564 94.325 79.6826 93.8211C79.2088 93.3172 78.4183 93.2941 77.9157 93.7668C77.413 94.2394 77.3886 95.031 77.8613 95.5337ZM73.7225 95.351C74.1963 95.8549 74.9868 95.878 75.4894 95.4053C75.9921 94.9327 76.0176 94.1423 75.5438 93.6384C75.07 93.1345 74.2795 93.1114 73.7769 93.5841C73.2742 94.0567 73.2487 94.8471 73.7225 95.351Z" fill="#192028"/>
<path d="M93.8347 158.39L94.9005 160.062C91.7356 162.144 92.6859 163.864 94.3886 166.611C95.7017 168.727 97.1379 171.166 93.8591 174.154L93.072 174.872L91.7437 173.415L92.5308 172.697C94.4474 170.95 94.2212 170.076 92.716 167.651C90.406 163.929 89.8293 161.042 93.8347 158.39ZM99.7548 188.091C100.527 186.932 100.409 185.395 99.4706 184.366L81.9643 165.16C81.0257 164.131 79.5063 163.872 78.2795 164.532C77.3728 165.029 63.4439 172.562 62.7627 173.183C61.0642 174.731 61.2283 177.049 62.5666 178.517C63.2774 179.296 64.3222 179.765 65.5833 179.894C73.5666 180.715 75.0128 179.801 76.1232 181.019L83.1563 188.734C84.2465 189.93 83.2082 191.31 83.2872 199.316C83.2993 200.583 83.6692 201.667 84.3799 202.447C85.7182 203.915 88.0108 204.292 89.7093 202.744C90.3905 202.123 99.1771 188.949 99.7548 188.091ZM81.1905 176.682L78.945 174.218L76.4815 176.464L75.3587 175.232L77.8222 172.986L75.5766 170.523L76.8084 169.4L79.0539 171.864L81.5174 169.618L82.6401 170.85L80.1767 173.095L82.4222 175.559L81.1905 176.682ZM84.4499 182.731L82.2043 180.268L83.4361 179.145L85.6816 181.609L84.4499 182.731ZM88.4613 185.276C87.9965 184.767 88.0318 183.977 88.543 183.511C89.0542 183.045 89.8441 183.082 90.3089 183.592C90.7737 184.102 90.7383 184.892 90.2272 185.358C89.716 185.824 88.9261 185.786 88.4613 185.276ZM88.2706 189.397C87.8058 188.887 87.8412 188.097 88.3523 187.631C88.8635 187.165 89.6534 187.203 90.1182 187.713C90.583 188.223 90.5477 189.013 90.0365 189.479C89.5253 189.945 88.7355 189.907 88.2706 189.397ZM92.6199 185.432C92.155 184.922 92.1904 184.132 92.7016 183.666C93.2127 183.201 94.0026 183.238 94.4675 183.748C94.9323 184.258 94.8969 185.048 94.3857 185.514C93.8746 185.98 93.0847 185.942 92.6199 185.432ZM92.373 189.568C91.9082 189.058 91.9436 188.268 92.4548 187.802C92.9659 187.336 93.7558 187.374 94.2206 187.884C94.6855 188.394 94.6501 189.184 94.1389 189.65C93.6277 190.115 92.8379 190.078 92.373 189.568Z" fill="#192028"/>
<path d="M169.102 101.843L167.893 100.274C170.859 97.9178 169.761 96.2898 167.818 93.7037C166.323 91.7142 164.676 89.4126 167.675 86.1439L168.396 85.3593L169.848 86.6924L169.128 87.4771C167.375 89.3877 167.679 90.2393 169.394 92.5214C172.025 96.0217 172.856 98.8454 169.102 101.843ZM162.777 64.3675C166.509 60.3006 172.74 59.9379 176.691 63.5644C178.547 65.2672 179.565 67.5474 179.742 69.9048C179.967 72.8914 182.492 74.9889 185.372 74.9857C187.705 74.9824 190.027 75.803 191.856 77.4821C195.806 81.1075 195.98 87.3472 192.247 91.4141C188.515 95.4809 182.283 95.8425 178.333 92.2171L162.914 78.0508C159.216 74.3946 159.128 68.3435 162.777 64.3675ZM180.069 82.4995L182.525 84.7534L180.271 87.2092L182.727 89.4631L184.981 87.0073L187.436 89.2612L189.69 86.8053L187.234 84.5514L189.488 82.0956L187.033 79.8417L184.779 82.2976L182.323 80.0437L180.069 82.4995ZM176.284 76.7638L178.74 79.0177L179.867 77.7898L177.411 75.5359L176.284 76.7638ZM169.119 74.7119C169.741 74.0341 169.697 72.9803 169.018 72.3571C168.339 71.7339 167.285 71.7802 166.663 72.458C166.041 73.1359 166.085 74.1897 166.764 74.8129C167.443 75.4361 168.497 75.3897 169.119 74.7119ZM171.372 72.2561C170.75 72.9339 170.794 73.9877 171.473 74.6109C172.153 75.2341 173.206 75.1878 173.828 74.51C174.45 73.8322 174.406 72.7783 173.727 72.1551C173.048 71.5319 171.995 71.5783 171.372 72.2561ZM171.171 67.5464C170.548 68.2242 170.592 69.278 171.272 69.9012C171.951 70.5244 173.004 70.4781 173.626 69.8002C174.248 69.1224 174.204 68.0686 173.525 67.4454C172.846 66.8222 171.793 66.8686 171.171 67.5464ZM166.461 67.7483C165.839 68.4261 165.883 69.48 166.562 70.1032C167.241 70.7264 168.295 70.68 168.917 70.0022C169.539 69.3244 169.495 68.2705 168.816 67.6473C168.137 67.0241 167.083 67.0705 166.461 67.7483Z" fill="#192028"/>
<path d="M84.4456 233.851C83.0714 236.996 79.3992 238.446 76.3259 236.917C51.6458 224.641 31.71 204.542 19.6345 179.763C18.1308 176.678 19.6104 173.017 22.7669 171.669C25.9233 170.32 29.56 171.795 31.0807 174.873C41.8902 196.748 59.5226 214.524 81.3093 225.511C84.3742 227.057 85.8197 230.705 84.4456 233.851Z" fill="#EC2C45"/>
<path d="M167.626 25.1269C168.858 21.923 172.462 20.31 175.6 21.6994C200.806 32.8569 221.623 52.0412 234.797 76.254C236.438 79.2691 235.124 82.992 232.031 84.4808C228.938 85.9695 225.239 84.6588 223.582 81.6528C211.802 60.2842 193.391 43.3164 171.133 33.3175C168.002 31.9109 166.395 28.3308 167.626 25.1269Z" fill="#EC2C45"/>
<circle cx="128.5" cy="61.5" r="7.5" fill="#192028"/>
<circle cx="59.5" cy="130.5" r="7.5" fill="#192028"/>
<circle cx="128.5" cy="194.5" r="7.5" fill="#192028"/>
<circle cx="198.5" cy="130.5" r="7.5" fill="#192028"/>
</svg>
